<?xml version="1.0" standalone="no"?>
<!DOCTYPE svg PUBLIC "-//W3C//DTD SVG 20010904//EN"
 "http://www.w3.org/TR/2001/REC-SVG-20010904/DTD/svg10.dtd">
<svg version="1.0" xmlns="http://www.w3.org/2000/svg"
 width="720.000000pt" height="720.000000pt" viewBox="0 0 720.000000 720.000000"
 preserveAspectRatio="xMidYMid meet">
<metadata>
Created by potrace 1.14, written by Peter Selinger 2001-2017
</metadata>
<g transform="translate(0.000000,720.000000) scale(0.100000,-0.100000)"
fill="#000000" stroke="none">
<path d="M3550 7187 c-3 -3 -52 -8 -110 -12 -58 -4 -130 -9 -160 -12 -30 -2
-82 -6 -115 -8 -53 -4 -100 -11 -100 -15 0 -1 -25 -4 -55 -6 -30 -2 -66 -8
-80 -14 -14 -5 -41 -12 -60 -14 -19 -3 -46 -8 -60 -11 -14 -4 -33 -7 -42 -7
-10 1 -18 -4 -18 -9 0 -6 -4 -8 -8 -5 -10 6 -172 -36 -247 -64 -11 -5 -76 -29
-145 -55 -138 -51 -145 -54 -212 -84 -26 -11 -53 -22 -60 -23 -7 -2 -15 -5
-18 -8 -5 -6 -121 -64 -130 -65 -3 -1 -21 -11 -40 -23 -19 -12 -39 -22 -45
-22 -5 0 -29 -16 -53 -34 -24 -19 -71 -49 -106 -66 -35 -18 -75 -42 -89 -54
-14 -11 -35 -28 -48 -36 -12 -8 -31 -23 -41 -32 -10 -10 -23 -18 -29 -18 -7 0
-19 -8 -28 -18 -9 -9 -34 -30 -56 -47 -173 -126 -437 -385 -586 -575 -24 -30
-52 -64 -62 -75 -11 -11 -31 -38 -45 -60 -14 -22 -28 -42 -31 -45 -14 -11 -71
-99 -71 -109 0 -5 -6 -14 -14 -18 -7 -4 -24 -28 -36 -53 -13 -25 -35 -63 -50
-85 -23 -33 -162 -299 -165 -315 0 -3 -9 -21 -20 -40 -10 -19 -20 -43 -22 -53
-2 -10 -11 -34 -22 -55 -18 -36 -46 -115 -42 -120 1 -1 -6 -16 -14 -32 -9 -17
-13 -30 -11 -30 3 0 -3 -20 -14 -45 -11 -25 -17 -45 -13 -45 3 0 0 -6 -6 -14
-6 -8 -11 -18 -10 -22 1 -5 0 -12 -1 -16 -1 -5 -3 -11 -4 -15 -2 -5 -10 -33
-20 -64 -9 -31 -19 -66 -21 -78 -3 -11 -8 -31 -11 -43 -3 -13 -8 -39 -10 -58
-3 -19 -9 -49 -15 -66 -5 -18 -12 -47 -14 -65 -2 -19 -6 -50 -10 -70 -6 -38
-12 -93 -21 -199 -4 -36 -10 -70 -16 -77 -5 -6 -5 -14 0 -17 5 -3 5 -34 0 -73
-14 -111 5 -589 27 -693 2 -14 7 -44 10 -67 9 -75 16 -117 27 -158 6 -22 13
-53 15 -70 3 -16 9 -37 14 -46 4 -9 6 -19 3 -22 -7 -6 25 -118 38 -134 6 -7 8
-13 5 -13 -10 0 49 -183 111 -340 5 -14 11 -29 12 -35 1 -5 7 -19 13 -30 6
-11 12 -22 12 -25 1 -3 14 -32 30 -65 15 -33 29 -62 30 -65 8 -23 20 -46 25
-50 4 -3 19 -30 33 -60 26 -55 68 -131 77 -140 9 -9 30 -45 40 -69 6 -13 24
-39 40 -59 16 -19 27 -39 24 -44 -3 -4 2 -11 10 -14 9 -3 16 -10 16 -15 0 -12
42 -73 53 -77 4 -2 7 -8 7 -13 0 -8 78 -117 105 -145 5 -6 42 -47 80 -90 171
-192 293 -314 381 -382 27 -20 63 -51 81 -69 18 -17 63 -53 100 -79 38 -27 73
-52 78 -56 37 -30 105 -78 110 -78 8 0 120 -74 123 -82 2 -5 8 -8 13 -8 4 0
41 -19 81 -43 83 -48 193 -102 363 -177 59 -25 204 -78 215 -77 3 0 15 -5 28
-12 13 -7 55 -21 95 -32 40 -11 88 -25 107 -30 19 -6 62 -17 95 -25 56 -13 82
-19 145 -29 14 -2 68 -11 120 -20 52 -8 118 -18 145 -21 28 -3 73 -8 100 -11
65 -7 625 -7 690 0 28 3 79 8 115 11 59 6 207 28 270 42 14 3 36 7 50 9 14 1
25 4 25 5 0 1 25 7 55 15 115 27 255 67 281 81 16 8 38 16 51 18 13 3 23 5 23
6 0 1 7 3 15 5 8 2 43 15 77 29 35 14 71 26 82 26 10 0 24 7 31 15 7 8 17 15
22 15 11 0 279 133 356 176 65 37 204 126 220 141 7 7 17 13 22 13 5 0 15 6
22 13 7 7 42 35 78 62 107 80 202 157 246 200 23 22 79 76 125 121 146 140
379 405 379 429 0 3 9 15 19 27 35 36 147 210 216 333 38 66 73 123 79 127 6
4 8 8 4 8 -9 0 50 130 70 153 8 9 12 17 9 17 -6 0 11 46 38 105 18 38 27 65
32 90 2 10 7 22 11 25 11 8 70 178 76 220 1 8 10 41 20 72 9 32 17 60 17 63 0
2 5 19 10 37 14 45 20 70 23 93 2 11 4 20 5 20 2 0 4 18 7 40 2 22 9 65 16 95
11 58 12 64 24 175 9 94 11 110 13 110 1 0 4 43 8 95 9 144 9 343 -1 455 -4
55 -10 130 -11 167 -2 37 -7 78 -11 90 -4 13 -8 37 -9 53 -3 44 -24 165 -35
200 -5 17 -11 44 -14 60 -10 66 -18 101 -27 120 -5 11 -13 40 -19 65 -13 54
-13 56 -46 150 -14 41 -27 80 -28 85 -5 16 -16 46 -41 105 -13 30 -26 66 -30
80 -9 29 -162 339 -177 358 -6 6 -7 12 -4 12 4 0 -9 21 -29 46 -19 26 -35 51
-35 56 0 8 -63 109 -85 135 -5 7 -16 19 -23 28 -7 8 -10 15 -6 15 4 0 -3 8
-14 19 -12 10 -22 23 -22 28 0 6 -7 16 -15 23 -8 7 -13 16 -10 20 3 4 -1 10
-8 13 -7 2 -39 40 -72 83 -33 44 -64 84 -70 90 -164 186 -277 298 -385 384
-24 19 -58 49 -75 65 -18 17 -52 45 -76 63 -24 18 -66 49 -94 69 -105 78 -217
154 -248 169 -36 17 -75 39 -127 70 -38 23 -199 105 -293 147 -31 15 -66 27
-77 27 -11 0 -20 4 -20 9 0 5 -12 12 -27 16 -16 3 -41 13 -58 20 -53 23 -208
74 -290 95 -44 12 -89 23 -100 26 -11 4 -29 7 -40 9 -11 1 -27 5 -35 8 -21 8
-111 25 -195 37 -38 5 -86 13 -105 16 -19 3 -53 7 -75 9 -128 9 -225 17 -260
20 -94 11 -210 17 -215 12z m255 -643 c98 -7 130 -10 130 -13 0 -1 33 -4 74
-7 40 -3 81 -9 90 -13 9 -5 36 -12 61 -15 41 -6 54 -8 108 -20 44 -10 111 -29
152 -43 25 -8 59 -19 75 -23 61 -16 228 -79 268 -101 10 -5 22 -7 26 -4 5 2
14 -2 21 -10 7 -8 17 -15 22 -15 5 0 26 -8 46 -19 96 -49 180 -94 207 -111 17
-11 49 -29 72 -41 23 -11 47 -27 54 -35 6 -8 18 -14 25 -14 8 0 14 -4 14 -9 0
-5 8 -12 18 -15 10 -3 38 -24 62 -46 25 -22 49 -40 54 -40 5 0 16 -8 25 -18 9
-9 41 -36 71 -58 60 -45 333 -304 327 -311 -3 -2 10 -18 27 -37 95 -100 251
-312 313 -427 12 -22 26 -46 32 -53 6 -7 8 -16 4 -19 -3 -4 -2 -7 4 -7 5 0 23
-29 38 -65 16 -36 32 -65 37 -65 4 0 8 -5 8 -10 0 -10 23 -65 66 -154 13 -28
24 -56 24 -63 0 -7 4 -13 10 -13 5 0 9 -3 8 -7 -3 -14 13 -74 32 -117 10 -22
21 -52 24 -66 3 -14 7 -36 10 -49 12 -54 -25 -68 -114 -43 -19 6 -66 18 -105
28 -64 15 -302 124 -315 143 -3 5 -23 18 -45 29 -22 11 -51 31 -65 44 -14 13
-43 35 -65 50 -22 15 -52 38 -67 50 -37 32 -57 48 -107 88 -24 19 -60 50 -80
68 -20 19 -52 46 -71 60 -52 39 -151 124 -177 151 -13 13 -23 21 -23 17 0 -8
-148 108 -166 130 -6 8 -14 10 -18 6 -4 -4 -12 1 -17 11 -6 9 -14 17 -19 17
-6 0 -19 8 -30 18 -36 31 -171 103 -265 142 -11 5 -42 18 -69 29 -27 12 -58
23 -70 26 -12 2 -47 13 -80 24 -32 12 -74 23 -95 25 -20 3 -37 5 -38 7 -2 1
-7 3 -13 4 -5 1 -11 4 -12 5 -2 1 -14 3 -28 5 -14 2 -81 11 -150 20 -151 21
-277 16 -465 -16 -33 -6 -64 -14 -70 -17 -5 -3 -23 -7 -39 -8 -17 -2 -39 -7
-50 -13 -12 -5 -39 -15 -61 -22 -22 -6 -62 -22 -90 -34 -107 -48 -150 -69
-155 -75 -3 -4 -35 -24 -72 -44 -38 -21 -68 -41 -68 -44 0 -4 -16 -18 -35 -31
-19 -13 -47 -35 -62 -48 -97 -88 -131 -121 -154 -150 -15 -18 -29 -30 -32 -27
-3 3 -8 -4 -12 -15 -3 -12 -12 -27 -19 -33 -26 -27 -106 -151 -118 -183 -6
-19 -15 -35 -19 -35 -8 0 -54 -102 -51 -113 1 -4 -7 -29 -19 -55 -12 -26 -24
-63 -26 -82 -3 -19 -9 -53 -14 -75 -17 -70 -23 -379 -10 -456 7 -38 13 -72 13
-76 0 -5 4 -14 10 -20 6 -7 7 -13 4 -13 -4 0 -1 -10 6 -22 6 -13 12 -30 12
-38 2 -31 82 -154 136 -207 59 -59 111 -93 203 -134 39 -18 63 -36 73 -55 9
-16 15 -30 14 -32 -4 -7 36 -98 47 -110 7 -7 13 -18 13 -23 0 -18 62 -102 104
-143 56 -52 161 -120 216 -139 25 -9 61 -22 80 -29 19 -8 42 -14 50 -13 35 3
41 -17 15 -51 -14 -18 -25 -36 -25 -41 -1 -10 -122 -94 -141 -96 -8 -2 -27 -7
-44 -13 -92 -34 -119 -38 -230 -40 -90 -1 -139 3 -195 17 -120 31 -242 84
-322 140 -14 11 -29 19 -33 19 -16 0 -159 132 -225 207 -51 58 -161 243 -145
243 4 0 -1 12 -9 28 -30 53 -68 191 -81 297 -4 28 -16 169 -17 190 -1 14 13
163 18 200 3 17 7 44 9 60 2 17 8 47 13 67 6 20 7 39 4 42 -3 4 1 6 8 6 7 0
11 2 8 5 -3 3 3 34 14 68 11 34 21 69 23 77 2 8 15 41 29 72 14 31 26 62 26
67 0 6 3 11 8 11 4 0 17 22 29 48 30 65 142 229 199 292 42 46 271 273 323
320 90 81 103 92 145 125 36 28 93 79 200 180 24 22 52 47 62 56 10 9 48 49
84 89 95 106 100 112 100 120 0 3 8 15 18 26 46 51 176 284 177 319 1 6 7 30
14 55 17 60 21 78 26 120 2 19 4 35 5 35 2 0 4 52 5 115 1 63 3 119 4 123 2
15 46 26 91 22 25 -3 86 -7 135 -11z m-973 -165 c-1 -30 -5 -63 -9 -74 -4 -11
-7 -27 -8 -35 -1 -8 -8 -35 -15 -60 -6 -25 -12 -47 -12 -50 0 -3 -3 -9 -8 -15
-4 -5 -13 -29 -19 -52 -6 -23 -17 -48 -24 -55 -6 -7 -22 -33 -34 -58 -12 -25
-30 -58 -40 -75 -21 -35 -161 -224 -180 -243 -7 -7 -13 -16 -13 -20 0 -4 -14
-23 -31 -42 -17 -19 -47 -55 -68 -79 -20 -25 -43 -52 -51 -61 -41 -44 -128
-147 -136 -161 -7 -13 -73 -92 -119 -143 -35 -38 -105 -136 -98 -136 4 0 3 -4
-3 -8 -16 -11 -76 -102 -67 -102 4 0 3 -4 -2 -8 -21 -15 -64 -80 -57 -86 3 -4
2 -10 -3 -14 -10 -7 -55 -94 -55 -106 0 -4 -9 -26 -19 -49 -35 -78 -50 -117
-44 -117 3 0 0 -7 -7 -15 -7 -8 -10 -15 -6 -15 4 0 0 -13 -8 -29 -8 -15 -17
-40 -20 -55 -3 -14 -7 -34 -10 -44 -3 -9 -7 -34 -11 -56 -3 -21 -7 -41 -9 -45
-2 -3 -7 -35 -10 -71 -14 -143 -18 -186 -22 -209 -5 -35 24 -324 36 -355 5
-15 9 -30 8 -34 -3 -10 40 -151 57 -187 8 -16 25 -58 39 -92 13 -35 33 -75 44
-90 10 -16 28 -47 40 -71 12 -24 27 -49 32 -55 6 -7 27 -36 49 -65 71 -98 133
-165 216 -237 32 -27 63 -55 69 -60 78 -74 390 -233 456 -233 8 0 26 -3 40 -6
65 -15 80 -17 131 -21 30 -2 79 -8 109 -13 55 -10 125 -8 190 4 19 3 49 8 65
10 71 9 81 11 91 17 6 3 23 8 38 11 79 14 251 134 303 210 15 23 31 43 35 46
10 8 51 101 55 125 2 11 11 25 20 32 16 13 148 65 158 64 3 -1 30 17 60 39 30
22 55 37 55 33 0 -20 139 143 169 199 26 48 81 188 82 205 0 15 13 31 24 29
18 -3 105 -82 105 -95 0 -6 4 -11 8 -11 11 0 67 -116 83 -170 7 -25 14 -72 15
-105 2 -33 4 -61 5 -62 4 -7 3 -63 -1 -63 -3 0 -5 -18 -4 -40 0 -44 -16 -130
-33 -170 -6 -14 -9 -28 -6 -32 2 -5 -1 -8 -7 -8 -6 0 -8 -4 -5 -10 3 -5 1 -10
-6 -10 -7 0 -10 -2 -7 -6 7 -7 -45 -131 -66 -155 -9 -11 -16 -22 -16 -26 0
-16 -90 -125 -159 -193 -87 -85 -215 -174 -311 -214 -36 -15 -74 -31 -85 -36
-140 -59 -469 -86 -650 -55 -44 8 -97 16 -118 19 -60 7 -273 84 -361 130 -117
61 -223 132 -302 201 -160 139 -236 216 -353 355 -35 41 -80 93 -100 115 -20
22 -63 72 -96 110 -93 107 -355 365 -355 349 0 -3 -6 0 -12 5 -52 43 -77 61
-83 61 -3 0 -21 11 -39 25 -18 14 -37 25 -43 25 -5 0 -18 9 -30 19 -11 11 -31
21 -44 23 -13 1 -26 6 -29 9 -16 18 -183 66 -260 75 -25 2 -63 7 -85 10 -53 8
-72 8 -122 0 -57 -9 -84 16 -77 71 3 21 7 67 9 103 3 36 6 94 9 130 5 68 29
221 47 302 6 25 12 57 13 70 4 28 23 104 36 138 5 14 11 36 14 50 2 14 14 52
26 85 12 33 27 76 33 95 6 19 14 37 17 40 3 3 6 10 7 15 4 22 77 191 94 219
10 16 16 33 13 38 -3 4 -1 8 5 8 5 0 12 9 16 20 20 63 265 434 337 511 7 8 40
46 73 84 78 90 208 221 259 260 23 17 57 46 76 64 19 18 47 40 63 49 15 9 27
20 27 24 0 4 6 8 14 8 8 0 17 7 20 16 3 8 10 12 16 9 5 -3 10 -2 10 3 0 10 94
82 108 82 4 0 23 14 42 30 19 16 38 30 41 30 3 0 46 23 94 51 96 55 287 149
303 149 5 0 31 10 58 22 27 12 56 23 65 25 9 1 37 12 63 23 26 11 58 20 70 20
12 0 26 4 32 9 9 9 60 19 79 16 6 -1 9 -25 7 -56z m1241 -1238 c16 -6 44 -11
63 -11 20 0 43 -4 53 -10 10 -5 33 -11 52 -14 46 -5 210 -61 218 -74 3 -5 21
-13 39 -17 17 -3 32 -10 32 -15 0 -5 10 -12 23 -16 21 -6 157 -90 167 -103 3
-3 17 -12 32 -20 15 -7 42 -28 61 -45 40 -36 114 -98 131 -108 6 -4 8 -8 3 -8
-4 0 12 -17 35 -37 23 -21 54 -52 69 -68 26 -29 53 -58 153 -165 23 -25 47
-52 52 -61 5 -9 45 -56 89 -104 44 -49 103 -113 130 -144 87 -96 207 -208 268
-250 12 -8 26 -21 30 -28 4 -7 15 -13 22 -13 8 0 15 -4 15 -10 0 -5 5 -10 11
-10 6 0 40 -20 76 -45 35 -25 71 -45 79 -45 9 0 29 -9 45 -21 16 -11 29 -17
29 -13 0 3 6 2 13 -4 21 -17 126 -46 197 -55 25 -3 56 -9 70 -14 25 -8 42 -9
150 -4 74 4 82 3 75 -8 -3 -5 -1 -13 5 -16 7 -4 9 -33 5 -78 -3 -40 -7 -103
-9 -142 -2 -38 -9 -108 -16 -155 -7 -47 -13 -94 -14 -105 -2 -11 -6 -33 -9
-50 -4 -16 -9 -46 -13 -65 -6 -39 -11 -62 -14 -70 -1 -3 -2 -8 -1 -12 0 -3 -9
-33 -20 -65 -21 -59 -27 -79 -35 -123 -2 -14 -8 -34 -13 -45 -26 -60 -42 -101
-42 -107 0 -4 -12 -36 -26 -70 -14 -35 -33 -83 -43 -108 -19 -47 -89 -183
-121 -236 -10 -17 -16 -34 -12 -37 3 -4 1 -7 -5 -7 -7 0 -12 -5 -12 -10 0 -12
-72 -124 -82 -128 -5 -2 -8 -9 -8 -16 0 -6 -13 -27 -30 -46 -16 -19 -29 -41
-30 -48 0 -7 -7 -15 -15 -18 -8 -4 -15 -10 -15 -15 0 -5 -8 -19 -17 -31 -46
-56 -152 -179 -199 -228 -28 -30 -68 -73 -88 -94 -20 -21 -36 -37 -36 -34 0 2
-24 -18 -52 -46 -29 -27 -98 -85 -153 -128 -55 -44 -108 -86 -117 -94 -10 -7
-36 -25 -58 -39 -22 -14 -59 -37 -82 -52 -24 -15 -45 -28 -48 -28 -3 -1 -30
-17 -60 -36 -30 -20 -82 -48 -115 -64 -33 -15 -76 -37 -95 -48 -19 -12 -40
-22 -48 -23 -7 -1 -40 -15 -75 -31 -34 -16 -69 -28 -77 -28 -8 0 -17 -2 -20
-6 -7 -10 -150 -60 -150 -53 0 4 -7 1 -15 -6 -8 -7 -15 -10 -15 -6 0 4 -13 0
-29 -9 -52 -26 -63 -13 -58 69 3 39 7 78 10 86 2 8 7 33 12 55 4 22 16 57 27
77 10 21 16 38 13 38 -5 0 71 147 85 165 4 6 18 28 30 50 12 22 36 59 54 83
69 94 149 199 184 240 81 96 136 159 178 205 24 26 44 51 44 55 0 5 22 33 48
63 27 29 81 97 120 149 39 52 77 102 84 111 7 8 22 33 33 55 11 21 27 47 35
56 29 33 146 285 155 335 2 10 4 19 5 21 2 1 4 7 5 12 1 6 4 12 5 15 1 3 3 8
4 13 1 4 10 34 20 67 10 33 20 70 22 83 2 12 6 34 9 50 16 78 30 243 29 332
-1 90 -10 219 -18 260 -24 120 -26 130 -42 173 -8 23 -16 47 -18 54 -1 7 -5
16 -9 19 -4 4 -7 16 -7 26 0 10 -4 18 -8 18 -4 0 -8 9 -9 20 -5 57 -142 293
-237 404 -45 54 -175 186 -224 229 -43 37 -155 107 -224 141 -32 16 -58 33
-58 38 0 5 -5 6 -10 3 -6 -4 -24 1 -42 9 -17 9 -37 16 -45 16 -7 0 -21 4 -31
9 -16 9 -87 30 -121 36 -166 30 -556 18 -600 -18 -8 -7 -16 -10 -18 -8 -12 11
-172 -82 -223 -130 -14 -13 -39 -42 -55 -64 -17 -22 -38 -49 -48 -60 -10 -11
-20 -31 -24 -45 -10 -42 -53 -121 -63 -115 -5 3 -11 1 -14 -4 -4 -5 -23 -15
-44 -22 -63 -20 -158 -68 -177 -89 -10 -11 -22 -20 -26 -20 -11 0 -79 -67
-117 -117 -25 -32 -77 -129 -87 -163 -1 -3 -6 -16 -12 -30 -6 -14 -13 -43 -18
-65 -6 -36 -18 -54 -36 -55 -4 0 -21 14 -39 30 -18 17 -36 30 -41 30 -5 0 -9
7 -9 15 0 7 -6 18 -13 22 -12 7 -46 66 -75 133 -40 88 -48 303 -17 420 9 36
18 70 19 75 1 6 7 19 13 30 6 11 11 24 11 28 0 32 91 190 166 287 55 72 94
110 176 173 81 63 200 134 200 121 0 -4 9 1 20 11 11 10 20 15 20 12 0 -4 18
2 39 14 21 11 51 22 67 25 15 3 31 7 35 9 4 3 24 7 44 11 21 3 47 8 59 11 84
21 427 23 479 4z m232 -661 c6 -3 35 -12 65 -19 30 -8 60 -16 65 -20 6 -3 12
-6 15 -7 37 -7 187 -83 231 -116 24 -18 58 -42 74 -52 35 -22 185 -174 185
-187 0 -4 10 -19 23 -31 60 -63 168 -306 170 -385 0 -7 3 -13 6 -13 3 0 7 -15
8 -33 1 -17 6 -54 12 -82 5 -27 8 -126 6 -220 -3 -146 -11 -217 -39 -355 -9
-46 -25 -92 -37 -106 -6 -8 -9 -14 -5 -14 8 0 -39 -122 -65 -170 -5 -8 -20
-37 -35 -64 -40 -76 -150 -227 -228 -315 -60 -68 -222 -227 -261 -258 -23 -17
-61 -51 -87 -75 -25 -23 -54 -50 -64 -58 -56 -45 -98 -81 -188 -164 -54 -50
-104 -97 -110 -104 -15 -18 -51 -58 -111 -124 -27 -30 -69 -83 -92 -119 -24
-35 -47 -69 -53 -76 -11 -13 -80 -140 -80 -148 -1 -8 -11 -36 -30 -81 -9 -22
-20 -62 -24 -88 -4 -26 -10 -58 -12 -69 -3 -12 -7 -71 -10 -132 -3 -60 -6
-121 -7 -135 l-2 -25 -150 2 c-186 2 -336 19 -510 58 -55 12 -143 34 -172 43
-17 6 -34 8 -37 4 -3 -3 -6 0 -6 6 0 7 -3 11 -7 10 -15 -3 -83 14 -88 22 -5 7
-115 44 -123 41 -1 -1 -19 8 -39 19 -21 11 -41 20 -45 20 -23 0 -377 186 -420
221 -20 16 -39 29 -42 29 -6 0 -107 70 -116 80 -3 3 -21 17 -40 30 -19 13 -37
27 -40 30 -3 4 -30 25 -60 47 -65 47 -295 272 -366 357 -27 32 -61 73 -76 90
-15 17 -28 34 -28 38 0 4 -18 28 -40 53 -22 25 -40 50 -40 54 0 4 -8 16 -18
27 -10 10 -31 42 -46 69 -16 28 -32 52 -36 55 -6 5 -52 87 -101 180 -13 25
-22 48 -21 53 1 4 -2 7 -7 7 -5 0 -14 15 -21 33 -7 17 -26 61 -43 96 -16 35
-30 68 -31 75 -1 6 -5 16 -9 23 -16 26 -75 201 -70 207 4 3 1 6 -6 6 -7 0 -9
5 -6 10 4 6 0 23 -8 40 -14 27 -14 30 7 43 14 9 34 11 61 6 22 -4 43 -5 47 -3
4 3 20 -1 35 -9 15 -8 33 -13 39 -10 6 2 30 -5 54 -16 24 -11 48 -17 52 -15 4
3 8 0 8 -5 0 -6 6 -11 14 -11 13 0 67 -22 96 -39 8 -5 40 -22 70 -36 30 -15
80 -46 110 -69 30 -23 69 -50 85 -60 25 -16 144 -108 181 -141 21 -18 49 -40
89 -70 22 -17 54 -43 71 -60 45 -43 153 -138 178 -155 12 -8 30 -23 41 -33 18
-17 73 -58 168 -124 18 -13 37 -26 42 -31 6 -4 25 -17 43 -27 17 -11 32 -23
32 -27 0 -4 4 -8 10 -8 5 0 30 -13 54 -28 25 -16 67 -37 93 -47 26 -10 50 -21
53 -25 5 -6 124 -51 144 -54 6 -1 18 -6 26 -11 8 -5 21 -10 27 -11 7 -1 41
-11 75 -22 35 -11 83 -23 108 -26 25 -3 56 -8 70 -12 14 -3 44 -7 67 -9 23 -2
61 -6 84 -10 48 -8 294 -9 307 -1 9 5 116 18 144 18 10 -1 20 4 23 9 4 5 10 7
15 4 11 -7 158 39 228 71 29 13 57 24 62 24 5 0 31 13 58 29 27 16 59 32 70
36 12 3 22 11 22 16 0 5 3 8 8 7 10 -3 143 86 166 111 11 12 23 21 27 21 19 0
209 205 264 285 33 48 66 94 73 101 7 8 10 14 6 14 -3 0 -1 7 6 15 7 8 10 15
6 15 -3 0 4 17 17 38 13 20 30 55 37 77 7 22 19 54 26 70 12 29 22 62 29 101
2 10 4 19 5 19 10 0 27 251 23 340 -2 72 -10 189 -12 203 -1 1 0 4 2 5 1 2 -4
11 -12 21 -8 9 -11 19 -8 23 4 3 2 14 -4 25 -6 11 -12 29 -14 40 -6 28 -77
146 -109 181 -14 15 -26 32 -26 38 0 5 -5 9 -11 9 -7 0 -22 11 -35 25 -13 14
-27 25 -33 25 -5 0 -11 4 -13 8 -1 5 -43 29 -92 53 l-89 44 -27 70 c-33 86
-61 142 -89 175 -12 14 -38 45 -58 69 -70 82 -263 190 -348 195 -41 2 -59 14
-46 30 6 7 7 17 3 21 -4 5 -1 5 5 1 8 -4 17 2 25 18 6 14 16 26 21 26 5 0 17
8 26 18 28 33 98 71 183 100 75 26 96 29 213 29 72 0 135 -3 140 -7z"/>
</g>
</svg>
