<?xml version="1.0" standalone="no"?>
<!DOCTYPE svg PUBLIC "-//W3C//DTD SVG 20010904//EN"
 "http://www.w3.org/TR/2001/REC-SVG-20010904/DTD/svg10.dtd">
<svg version="1.0" xmlns="http://www.w3.org/2000/svg"
 width="836.000000pt" height="836.000000pt" viewBox="0 0 836.000000 836.000000"
 preserveAspectRatio="xMidYMid meet">
<metadata>
Created by potrace 1.14, written by Peter Selinger 2001-2017
</metadata>
<g transform="translate(0.000000,836.000000) scale(0.100000,-0.100000)"
fill="#000000" stroke="none">
<path d="M4120 8346 c-3 -3 -53 -8 -110 -11 -159 -9 -440 -34 -450 -40 -5 -3
-39 -8 -77 -11 -37 -4 -75 -10 -83 -14 -8 -4 -37 -11 -65 -15 -97 -14 -388
-91 -437 -116 -10 -5 -24 -9 -32 -9 -18 0 -264 -96 -308 -120 -10 -6 -25 -10
-33 -10 -8 0 -23 -4 -33 -9 -9 -5 -84 -42 -165 -82 -81 -39 -150 -76 -153 -80
-3 -5 -12 -9 -20 -9 -9 0 -43 -20 -77 -44 -34 -24 -93 -61 -131 -81 -38 -20
-78 -46 -89 -56 -12 -10 -24 -19 -28 -19 -4 0 -14 -6 -21 -12 -28 -27 -87 -68
-97 -68 -6 0 -11 -4 -11 -8 0 -7 -48 -46 -100 -82 -12 -8 -40 -31 -62 -50 -23
-19 -50 -43 -62 -53 -12 -10 -48 -42 -81 -70 -75 -66 -284 -275 -350 -352 -27
-32 -54 -63 -60 -69 -5 -6 -37 -45 -70 -86 -32 -41 -65 -81 -72 -88 -6 -7 -22
-30 -34 -52 -13 -22 -26 -40 -31 -40 -4 0 -8 -7 -8 -15 0 -8 -4 -15 -8 -15 -5
0 -17 -16 -28 -35 -10 -19 -22 -35 -26 -35 -5 0 -8 -5 -8 -10 0 -6 -13 -29
-30 -52 -16 -22 -30 -45 -30 -50 0 -5 -5 -14 -10 -21 -82 -95 -371 -703 -396
-832 -2 -11 -13 -45 -23 -75 -16 -44 -36 -109 -46 -150 0 -3 -9 -31 -18 -63
-28 -91 -76 -341 -92 -472 -8 -66 -17 -136 -20 -155 -4 -32 -7 -70 -20 -260
-6 -84 -7 -279 -1 -289 3 -4 7 -77 10 -162 3 -84 8 -163 10 -174 2 -11 7 -42
10 -70 23 -173 38 -264 52 -328 45 -201 57 -246 74 -294 11 -29 18 -53 15 -53
-2 0 0 -11 5 -25 5 -14 12 -36 14 -48 9 -39 94 -268 127 -343 11 -22 19 -43
19 -47 0 -11 125 -263 170 -342 21 -38 49 -89 61 -112 13 -24 26 -43 31 -43 4
0 8 -6 8 -13 0 -8 18 -39 40 -70 22 -30 40 -58 40 -61 0 -3 18 -31 40 -63 22
-32 46 -66 53 -76 67 -100 152 -206 242 -303 17 -17 62 -66 100 -109 39 -42
103 -109 144 -148 40 -40 85 -84 99 -99 14 -16 31 -28 38 -28 7 0 14 -4 16 -9
4 -12 150 -134 234 -196 133 -99 214 -155 223 -155 5 0 11 -4 13 -8 10 -25
363 -225 505 -286 43 -18 103 -45 133 -59 72 -34 166 -69 320 -118 69 -22 139
-45 155 -51 67 -22 178 -49 290 -69 33 -5 74 -14 90 -19 17 -5 55 -11 85 -14
30 -3 102 -12 160 -20 58 -9 157 -19 220 -22 127 -8 579 -8 650 0 25 3 79 7
120 10 179 14 408 50 485 77 17 6 38 11 49 11 23 -1 315 82 359 102 18 8 46
17 62 21 17 3 62 19 100 35 39 16 84 31 99 34 16 3 36 12 45 19 9 8 27 18 41
22 21 7 153 73 420 211 30 16 57 31 60 34 10 10 129 90 134 90 3 0 25 15 49
32 24 18 56 42 71 53 16 11 33 25 40 30 6 6 42 33 80 60 37 28 76 57 85 65 10
8 51 44 92 80 40 36 85 76 100 90 14 14 54 53 90 87 104 99 288 298 331 358 4
5 30 37 56 70 27 33 57 75 67 93 11 17 22 32 26 32 4 0 18 17 30 38 13 20 26
39 29 42 20 17 220 352 220 368 0 7 4 12 9 12 5 0 12 11 15 25 4 14 11 25 16
25 6 0 10 4 10 10 0 5 19 49 41 97 23 49 52 116 65 151 13 35 31 74 40 88 9
13 13 24 10 24 -4 0 2 17 13 37 10 21 19 41 20 46 0 4 8 23 16 43 8 20 15 41
15 46 0 5 11 37 24 71 19 51 75 244 82 282 1 6 7 30 14 55 16 61 18 68 41 200
22 124 25 146 35 230 3 30 8 63 10 73 2 10 6 62 9 115 3 53 9 108 12 122 9 44
11 352 2 435 -4 44 -11 127 -14 185 -5 92 -9 130 -21 190 -2 8 -6 38 -10 65
-3 28 -8 53 -10 57 -2 3 -6 34 -9 67 -3 33 -10 73 -16 88 -7 16 -13 42 -15 58
-2 17 -7 41 -10 55 -10 34 -11 41 -17 70 -18 83 -118 383 -178 535 -30 76
-110 253 -129 285 -5 8 -26 49 -47 90 -20 41 -59 110 -86 154 -26 43 -51 85
-55 95 -6 15 -139 211 -151 221 -7 6 -28 39 -37 57 -3 6 -23 30 -45 54 -21 23
-39 48 -39 56 0 7 -4 13 -8 13 -5 0 -21 18 -38 40 -30 42 -42 56 -164 191
-115 127 -209 218 -325 314 -27 22 -70 58 -95 80 -71 62 -131 110 -143 114 -6
2 -16 8 -22 13 -88 72 -124 98 -133 98 -6 0 -12 4 -14 8 -4 11 -136 95 -180
116 -20 9 -40 21 -43 25 -3 5 -26 19 -53 32 -26 12 -49 26 -52 30 -8 11 -257
133 -345 169 -44 18 -93 38 -110 45 -32 13 -128 50 -185 70 -77 28 -230 75
-244 75 -9 0 -35 7 -59 15 -24 8 -61 17 -83 21 -21 3 -43 8 -48 11 -37 23
-462 79 -731 97 -44 3 -120 8 -170 12 -49 3 -92 3 -95 0z m230 -741 c36 -3 98
-7 139 -10 40 -3 76 -7 80 -9 3 -2 44 -7 91 -11 47 -4 92 -11 100 -15 8 -4 38
-11 65 -14 28 -4 79 -13 115 -22 36 -8 81 -19 100 -23 19 -5 109 -34 200 -65
91 -32 177 -60 193 -63 15 -3 27 -9 27 -14 0 -5 5 -9 11 -9 13 0 196 -76 219
-90 8 -6 53 -30 100 -54 47 -24 101 -55 120 -68 19 -13 56 -34 83 -47 26 -13
52 -30 58 -38 6 -7 17 -13 24 -13 7 0 15 -7 19 -15 3 -8 10 -15 16 -15 12 0
68 -40 110 -77 14 -13 29 -23 34 -23 5 0 17 -9 27 -21 10 -11 38 -35 62 -52
112 -81 335 -299 457 -447 25 -30 52 -62 60 -71 22 -23 42 -49 70 -89 13 -19
27 -37 30 -40 3 -3 16 -22 29 -43 13 -21 28 -43 35 -50 6 -6 27 -37 45 -67 19
-30 36 -57 40 -60 3 -3 21 -34 40 -70 18 -36 36 -67 40 -70 3 -3 16 -27 29
-55 23 -49 37 -76 67 -132 12 -24 65 -139 70 -153 5 -16 27 -68 35 -85 12 -26
75 -217 90 -273 8 -33 8 -47 -1 -58 -13 -16 -66 -18 -104 -4 -14 5 -40 12 -58
15 -80 14 -167 40 -221 67 -33 15 -65 28 -73 28 -7 0 -13 4 -13 10 0 5 -12 13
-27 16 -16 4 -30 10 -33 14 -3 4 -23 17 -45 29 -91 50 -150 89 -189 126 -6 6
-23 18 -37 27 -24 15 -178 136 -189 148 -3 3 -25 21 -49 40 -25 19 -54 44 -66
55 -26 25 -161 138 -200 168 -24 18 -62 51 -92 78 -18 16 -35 29 -38 29 -6 0
-6 0 -76 57 -80 67 -121 98 -133 102 -6 2 -13 7 -16 10 -10 12 -126 86 -165
105 -22 11 -42 23 -45 26 -3 4 -20 14 -37 23 -18 9 -46 24 -63 33 -16 8 -30
12 -30 9 0 -3 -12 1 -27 9 -33 19 -126 55 -168 67 -16 4 -50 15 -74 24 -24 9
-78 23 -120 31 -42 9 -105 22 -141 29 -369 75 -789 20 -1125 -146 -108 -53
-116 -58 -188 -106 -26 -18 -49 -33 -52 -33 -14 0 -234 -188 -279 -239 -12
-13 -38 -41 -58 -62 -21 -21 -38 -41 -38 -43 0 -10 -64 -96 -71 -96 -4 0 -9
-8 -13 -17 -3 -10 -14 -31 -25 -48 -82 -129 -168 -345 -185 -465 -23 -159 -26
-213 -25 -365 2 -144 6 -184 26 -265 14 -52 27 -106 31 -120 6 -28 100 -183
113 -188 5 -2 9 -10 9 -18 0 -8 4 -14 9 -14 5 0 29 -19 53 -42 25 -24 53 -50
64 -59 18 -14 130 -72 144 -75 3 0 21 -8 41 -17 31 -14 40 -26 69 -99 35 -90
71 -161 83 -166 4 -2 7 -8 7 -14 0 -24 140 -180 168 -185 5 -1 22 -13 36 -26
45 -42 210 -113 291 -126 27 -4 41 -12 43 -23 2 -10 -1 -18 -7 -18 -6 0 -11
-6 -11 -13 0 -16 -98 -117 -113 -117 -5 0 -15 -6 -21 -14 -10 -12 -59 -32
-197 -78 -64 -22 -297 -24 -376 -4 -32 8 -69 17 -83 18 -14 2 -35 9 -47 16
-12 7 -31 12 -42 12 -12 0 -21 5 -21 10 0 6 -6 10 -14 10 -15 0 -167 76 -176
88 -3 4 -22 16 -44 27 -83 43 -297 254 -341 338 -11 20 -23 37 -27 37 -6 0
-78 140 -84 163 -1 4 -3 10 -4 15 -1 4 -2 10 -1 15 0 4 -4 7 -9 7 -6 0 -10 7
-10 15 0 8 -11 47 -25 87 -21 64 -32 111 -49 218 -3 14 -7 65 -11 114 -3 49
-8 92 -9 95 -3 5 5 112 19 246 15 144 85 398 136 494 10 19 16 38 13 43 -3 4
0 8 6 8 6 0 8 5 5 10 -3 6 -1 10 4 10 6 0 11 6 11 14 0 8 3 16 8 18 7 3 45 80
42 86 -1 2 7 10 17 18 10 7 15 14 11 14 -6 0 65 102 107 153 8 9 15 21 15 25
1 4 19 25 40 47 22 22 40 45 41 50 1 6 36 42 79 80 42 39 83 79 89 90 7 11 42
45 78 75 36 30 96 84 132 120 70 67 118 110 125 110 5 0 56 44 111 95 24 22
76 69 116 105 89 79 127 118 201 201 94 106 99 113 116 142 9 15 20 27 25 27
4 0 5 5 2 10 -3 6 -2 10 2 10 5 0 19 18 33 40 14 22 28 40 33 40 4 0 6 4 2 9
-3 5 -1 12 4 16 24 14 111 218 136 319 32 127 32 130 35 306 l2 135 31 12 c18
7 48 10 67 8 19 -3 64 -7 100 -10z m-1064 -198 c-8 -97 -48 -261 -67 -281 -5
-6 -9 -17 -9 -26 0 -48 -193 -369 -274 -456 -6 -7 -27 -33 -46 -59 -50 -66
-153 -189 -162 -193 -5 -2 -8 -8 -8 -14 0 -6 -10 -20 -22 -32 -13 -12 -43 -46
-68 -76 -25 -30 -50 -59 -56 -65 -6 -5 -24 -28 -40 -50 -30 -41 -42 -56 -115
-141 -64 -74 -103 -124 -113 -145 -5 -11 -13 -19 -18 -19 -4 0 -8 -6 -8 -14 0
-8 -4 -16 -8 -18 -8 -3 -72 -104 -72 -114 0 -2 -8 -14 -19 -25 -17 -18 -111
-198 -111 -212 0 -4 -11 -30 -24 -59 -46 -100 -107 -291 -122 -378 -2 -14 -7
-36 -10 -50 -3 -14 -8 -34 -10 -45 -4 -24 -22 -214 -22 -235 0 -8 -3 -34 -6
-56 -3 -23 1 -113 9 -200 16 -176 16 -178 45 -284 41 -154 49 -179 63 -202 8
-12 20 -41 27 -63 7 -22 25 -62 40 -90 80 -148 104 -191 116 -203 8 -7 14 -17
14 -20 0 -4 10 -18 23 -32 12 -14 41 -50 65 -81 53 -70 146 -166 237 -244 39
-33 72 -63 73 -67 2 -5 8 -8 13 -8 6 0 33 -17 62 -38 83 -59 328 -175 400
-187 15 -3 59 -12 98 -20 39 -8 91 -15 117 -15 26 0 63 -4 82 -10 56 -15 161
-19 231 -9 35 5 87 12 114 15 165 18 355 110 467 229 51 53 116 159 135 220
11 33 28 63 39 69 10 6 21 13 24 16 3 3 25 12 50 20 63 20 144 56 161 72 8 7
30 21 49 32 19 10 70 54 112 99 81 84 135 178 178 307 44 130 39 123 69 104
14 -10 34 -26 45 -36 11 -10 23 -18 28 -18 4 0 8 -5 8 -10 0 -6 10 -21 23 -33
35 -34 92 -154 111 -236 27 -110 25 -278 -3 -423 -12 -62 -99 -277 -127 -314
-13 -17 -24 -34 -24 -38 0 -13 -114 -159 -156 -201 -70 -69 -137 -127 -179
-154 -22 -14 -42 -28 -45 -31 -15 -15 -194 -107 -225 -116 -5 -1 -33 -11 -62
-22 -29 -11 -103 -30 -165 -43 -202 -43 -630 -28 -778 26 -19 7 -80 27 -135
45 -104 34 -265 111 -324 155 -19 14 -40 25 -45 25 -6 0 -24 11 -41 25 -16 13
-35 28 -40 33 -6 5 -24 17 -40 28 -31 20 -46 32 -169 144 -117 106 -251 247
-342 360 -16 19 -47 55 -70 80 -23 25 -59 65 -79 90 -94 113 -257 285 -320
339 -22 18 -60 52 -85 75 -25 24 -64 54 -87 69 -23 14 -44 31 -47 36 -4 5 -27
20 -51 32 -25 12 -45 26 -45 30 0 4 -10 9 -23 13 -12 3 -31 14 -43 24 -11 10
-31 21 -44 25 -14 3 -53 17 -87 31 -82 35 -200 64 -291 71 -40 4 -87 11 -104
16 -21 5 -45 5 -69 -2 -76 -23 -134 8 -123 66 5 25 11 93 19 215 3 52 10 127
16 165 5 39 12 88 15 110 3 22 12 72 21 110 8 39 19 90 23 115 5 25 22 95 40
155 17 61 33 117 35 125 21 89 198 510 218 518 4 2 7 9 7 15 0 7 16 37 34 67
19 30 32 58 30 62 -3 4 -1 8 4 8 5 0 12 8 16 18 6 18 27 54 37 62 3 3 33 48
66 100 62 99 142 209 196 272 18 20 48 55 67 78 19 23 59 67 88 98 28 30 52
59 52 64 0 4 3 8 8 8 4 0 47 38 95 85 48 47 92 85 97 85 6 0 27 17 48 38 20
21 57 54 82 73 25 18 47 37 48 41 2 5 10 8 18 8 8 0 17 7 20 15 4 8 12 15 19
15 7 0 15 4 17 8 4 10 114 92 124 92 3 0 23 13 44 30 20 16 48 34 61 40 13 6
38 19 54 30 32 21 91 53 165 90 25 12 47 26 48 31 2 5 8 9 13 9 9 0 65 24 144
61 11 5 29 11 41 13 11 2 40 13 65 24 24 11 73 30 109 42 35 12 69 24 74 28 6
3 23 7 40 9 16 2 34 7 40 12 12 10 76 19 89 13 5 -2 6 -32 3 -65z m1424 -1432
c36 -7 90 -17 120 -23 88 -16 110 -22 200 -49 47 -14 89 -30 95 -34 5 -5 16
-9 24 -9 8 0 22 -6 30 -13 9 -8 32 -20 51 -27 19 -8 63 -31 98 -52 34 -21 67
-38 72 -38 6 0 10 -3 10 -8 0 -4 16 -16 35 -26 19 -11 35 -23 35 -28 0 -4 6
-8 13 -8 8 0 22 -9 32 -20 10 -11 24 -20 31 -20 7 0 19 -8 26 -17 7 -10 35
-36 63 -58 79 -64 341 -331 434 -445 49 -58 98 -116 126 -146 17 -17 53 -57
80 -89 28 -31 68 -75 90 -98 22 -24 51 -56 65 -72 14 -17 46 -47 72 -68 26
-20 60 -50 75 -65 15 -15 46 -40 68 -57 44 -33 60 -45 78 -61 7 -6 22 -14 33
-18 11 -3 29 -14 40 -24 23 -21 101 -72 110 -72 3 0 36 -14 73 -31 113 -52
179 -73 271 -84 30 -4 66 -12 80 -17 28 -11 159 -12 223 -3 42 6 43 6 55 -29
8 -20 11 -49 8 -64 -5 -26 -10 -91 -21 -261 -3 -46 -7 -86 -9 -90 -2 -3 -7
-28 -10 -56 -13 -102 -18 -133 -41 -245 -13 -63 -33 -140 -44 -170 -11 -30
-23 -73 -27 -95 -8 -45 -51 -164 -65 -182 -6 -6 -9 -17 -8 -25 2 -7 -2 -23 -9
-35 -6 -12 -13 -30 -15 -40 -2 -10 -12 -36 -24 -58 -11 -22 -28 -62 -39 -90
-10 -27 -31 -71 -46 -96 -15 -25 -28 -50 -28 -55 0 -5 -16 -35 -35 -67 -19
-32 -35 -65 -35 -73 0 -7 -3 -14 -7 -14 -5 0 -17 -18 -27 -40 -11 -22 -23 -40
-28 -40 -4 0 -8 -7 -8 -15 0 -8 -4 -15 -10 -15 -5 0 -12 -11 -16 -25 -3 -14
-10 -25 -15 -25 -5 0 -9 -5 -9 -10 0 -12 -110 -163 -122 -168 -4 -2 -8 -9 -8
-15 0 -7 -11 -24 -25 -39 -14 -15 -25 -29 -25 -32 0 -2 -25 -30 -55 -63 -30
-32 -55 -64 -55 -70 0 -7 -7 -13 -15 -13 -8 0 -15 -4 -15 -8 0 -11 -182 -196
-270 -273 -99 -88 -211 -179 -219 -179 -3 0 -24 -16 -46 -35 -22 -19 -43 -35
-47 -35 -4 0 -13 -6 -20 -13 -17 -16 -115 -79 -153 -97 -16 -8 -32 -17 -35
-20 -9 -10 -120 -80 -125 -80 -3 0 -65 -29 -138 -64 -160 -77 -250 -116 -269
-116 -8 0 -18 -4 -24 -9 -5 -4 -54 -23 -109 -41 -55 -18 -113 -37 -130 -43
-59 -22 -65 -18 -72 42 -4 36 40 265 56 285 4 6 20 43 35 81 15 39 38 86 51
105 13 19 35 58 50 85 32 60 96 155 105 155 4 0 11 10 17 23 10 21 109 151
174 227 16 19 33 40 37 45 4 6 25 31 47 56 22 24 61 69 86 99 26 30 61 71 78
90 17 19 31 38 31 42 0 4 6 13 13 20 34 35 135 158 157 191 14 20 28 37 33 37
4 0 7 5 7 10 0 6 4 16 10 23 26 32 77 106 94 137 10 19 27 44 36 55 33 40 140
273 178 390 52 162 73 232 71 242 -1 4 0 10 1 13 21 54 53 392 46 486 -8 112
-25 269 -30 285 -3 8 -7 30 -10 50 -3 20 -10 49 -17 65 -6 16 -12 37 -15 48
-7 37 -88 243 -121 309 -58 118 -183 297 -265 381 -27 27 -48 51 -49 55 -1 5
-115 110 -193 176 -36 31 -171 115 -184 115 -6 0 -12 3 -14 8 -3 8 -109 62
-122 62 -4 0 -22 6 -39 13 -43 19 -101 37 -134 43 -14 3 -33 9 -43 14 -9 5
-43 11 -75 15 -33 4 -68 9 -78 11 -24 7 -430 7 -453 1 -11 -3 -41 -8 -69 -12
-27 -3 -54 -10 -60 -15 -7 -5 -20 -11 -31 -13 -30 -6 -86 -33 -114 -55 -14
-10 -40 -27 -58 -36 -36 -18 -85 -58 -111 -90 -9 -10 -23 -26 -31 -35 -30 -33
-70 -90 -70 -100 0 -6 -3 -11 -8 -11 -4 0 -18 -30 -31 -67 -14 -38 -29 -73
-35 -79 -6 -6 -43 -23 -81 -38 -92 -35 -183 -80 -219 -108 -55 -44 -146 -131
-146 -141 0 -5 -8 -17 -19 -26 -16 -14 -91 -156 -98 -185 -1 -6 -9 -33 -18
-61 -9 -27 -19 -61 -23 -75 -13 -43 -43 -36 -107 28 -160 155 -218 438 -146
714 24 93 74 220 102 259 11 16 17 29 12 29 -4 0 -3 4 2 8 15 11 66 92 58 92
-4 0 0 6 8 13 9 6 40 44 69 82 30 39 65 79 79 90 13 11 36 31 50 44 14 13 42
35 61 50 19 14 44 34 54 44 11 9 24 17 30 17 5 0 17 6 25 14 15 13 89 51 141
74 14 6 50 22 80 35 50 22 89 33 258 70 75 17 431 18 512 2z m287 -773 c10 -5
45 -15 78 -22 33 -7 65 -16 70 -20 6 -4 33 -15 60 -25 76 -27 133 -54 140 -65
3 -5 15 -10 25 -10 10 0 20 -4 22 -8 2 -5 37 -33 78 -62 41 -29 79 -59 83 -66
4 -8 12 -14 18 -14 17 0 156 -151 168 -182 2 -5 16 -23 32 -39 16 -16 29 -36
29 -44 0 -8 4 -15 8 -15 5 0 31 -46 59 -102 47 -95 70 -173 115 -373 21 -94
17 -464 -6 -590 -9 -55 -20 -107 -23 -115 -3 -8 -7 -22 -8 -30 -6 -30 -13 -56
-26 -85 -6 -16 -22 -57 -34 -90 -44 -116 -51 -131 -105 -223 -30 -52 -61 -104
-68 -118 -7 -13 -17 -24 -23 -24 -5 0 -9 -6 -9 -13 0 -7 -8 -22 -18 -33 -10
-10 -31 -37 -47 -59 -17 -21 -37 -47 -45 -56 -73 -79 -156 -174 -163 -185 -4
-8 -12 -14 -16 -14 -5 0 -44 -35 -89 -78 -44 -42 -86 -81 -94 -87 -12 -9 -166
-143 -178 -155 -3 -3 -36 -32 -75 -65 -150 -129 -270 -247 -374 -365 -56 -63
-151 -187 -151 -196 0 -3 -13 -24 -29 -47 -67 -99 -143 -278 -157 -368 -4 -30
-8 -56 -9 -59 -9 -32 -15 -99 -20 -215 -4 -77 -8 -142 -10 -145 -6 -10 -374 2
-445 14 -14 3 -74 12 -135 21 -60 9 -144 25 -185 36 -41 10 -88 21 -105 24
-37 6 -246 70 -272 83 -10 5 -51 20 -91 32 -40 12 -75 26 -78 31 -3 5 -12 9
-20 9 -37 0 -542 267 -552 292 -2 4 -8 8 -13 8 -9 0 -229 156 -239 169 -3 4
-32 28 -65 53 -123 94 -259 227 -440 433 -82 94 -115 136 -115 148 0 5 -10 19
-23 31 -27 26 -77 92 -77 102 0 4 -6 12 -14 18 -8 6 -23 27 -33 46 -10 19 -35
60 -55 90 -19 30 -59 102 -89 160 -30 58 -57 107 -60 110 -3 3 -20 41 -38 85
-18 44 -37 85 -41 90 -13 18 -89 219 -115 305 -14 47 -30 93 -35 102 -12 21
22 48 60 48 87 -1 281 -59 393 -116 26 -13 47 -21 47 -18 0 4 7 1 15 -6 20
-17 95 -59 118 -67 9 -3 17 -9 17 -13 0 -5 10 -12 22 -15 11 -4 36 -21 54 -38
31 -28 56 -45 93 -63 8 -4 22 -15 31 -23 9 -9 31 -27 50 -41 35 -26 86 -67
106 -85 23 -20 60 -51 104 -85 25 -19 52 -41 60 -50 8 -8 47 -42 85 -75 39
-33 80 -70 92 -82 12 -13 25 -23 28 -23 3 0 18 -11 33 -25 15 -14 32 -25 38
-25 7 0 14 -7 17 -15 4 -8 25 -27 49 -42 24 -15 52 -36 63 -46 29 -26 226
-157 236 -157 5 0 9 -4 9 -9 0 -9 35 -27 205 -107 86 -40 322 -120 385 -130
19 -3 55 -10 80 -15 25 -5 83 -14 130 -19 47 -6 91 -12 98 -15 27 -10 325 -6
400 5 193 29 288 54 442 117 98 39 302 149 308 164 2 5 10 9 18 9 8 0 14 4 14
9 0 5 10 13 22 17 12 4 38 22 58 40 19 19 39 34 43 34 12 0 257 247 257 259 0
5 6 16 13 23 66 66 182 275 241 434 29 76 28 74 52 209 19 107 22 413 5 520
-34 207 -129 376 -276 491 -35 28 -79 52 -205 112 -26 13 -39 29 -54 67 -10
28 -32 78 -47 111 -16 34 -29 65 -29 70 0 5 -13 23 -28 41 -15 17 -43 50 -62
74 -49 61 -89 96 -140 126 -25 14 -47 29 -50 33 -17 21 -176 82 -230 88 -41 4
-59 15 -60 35 0 12 151 157 165 157 6 0 32 10 56 23 44 23 132 52 199 66 47
10 274 5 297 -7z"/>
</g>
</svg>
